HIERARCHY
ROOT hips
{
  OFFSET 0 10.6860622 2.3727825e-15
  CHANNELS 6 Xposition Yposition Zposition Yrotation Xrotation Zrotation
  JOINT leftUpperLeg
  {
    OFFSET 0.6642549969 -0.9402397400000004 0
    CHANNELS 3 Yrotation Xrotation Zrotation
    JOINT leftLowerLeg
    {
      OFFSET 0 -3.997221335632195 0
      CHANNELS 3 Yrotation Xrotation Zrotation
      JOINT leftFoot
      {
        OFFSET -0.13777839790000004 -4.6145792000000005 -0.22186036399999998
        CHANNELS 3 Yrotation Xrotation Zrotation
        JOINT leftToes
        {
          OFFSET -0.03777410834999995 -0.9130806927000008 0.85230013
          CHANNELS 3 Yrotation Xrotation Zrotation
          End Site
          {
            OFFSET -0.03777410834999995 -0.9130806927000008 0.85230013
          }
        }
      }
    }
  }
  JOINT rightUpperLeg
  {
    OFFSET -0.6642778626 -0.9402397400000004 0
    CHANNELS 3 Yrotation Xrotation Zrotation
    JOINT rightLowerLeg
    {
      OFFSET 0 -3.997221452859387 0
      CHANNELS 3 Yrotation Xrotation Zrotation
      JOINT rightFoot
      {
        OFFSET 0.1377926176 -4.6145792000000005 -0.22185782299999995
        CHANNELS 3 Yrotation Xrotation Zrotation
        JOINT rightToes
        {
          OFFSET 0.037780746850000047 -0.9130806927000008 0.85230167
          CHANNELS 3 Yrotation Xrotation Zrotation
          End Site
          {
            OFFSET 0.037780746850000047 -0.9130806927000008 0.85230167
          }
        }
      }
    }
  }
  JOINT spine
  {
    OFFSET 0 0.13988381660000015 0
    CHANNELS 3 Yrotation Xrotation Zrotation
    JOINT chest
    {
      OFFSET 0 0.6191039003973773 0
      CHANNELS 3 Yrotation Xrotation Zrotation
      JOINT upperChest
      {
        OFFSET 0 0.9855186130586943 0
        CHANNELS 3 Yrotation Xrotation Zrotation
        JOINT leftShoulder
        {
          OFFSET 0.1807663869 1.5087829790000005 0
          CHANNELS 3 Yrotation Xrotation Zrotation
          JOINT leftUpperArm
          {
            OFFSET 0.5985063006419806 0 0
            CHANNELS 3 Yrotation Xrotation Zrotation
            JOINT leftLowerArm
            {
              OFFSET 2.2993332369501065 0 0
              CHANNELS 3 Yrotation Xrotation Zrotation
              JOINT leftHand
              {
                OFFSET 2.395047042602395 0 0
                CHANNELS 3 Yrotation Xrotation Zrotation
                JOINT leftIndexProximal
                {
                  OFFSET 0.5766295810000004 0.04556643899499946 0.17265095988184
                  CHANNELS 3 Yrotation Xrotation Zrotation
                  JOINT leftIndexIntermediate
                  {
                    OFFSET 0.2957229000000008 -0.019352197700001517 -0.007932640616999987
                    CHANNELS 3 Yrotation Xrotation Zrotation
                    JOINT leftIndexDistal
                    {
                      OFFSET 0.19008243099999922 -0.012484908149998475 -0.002786250786000012
                      CHANNELS 3 Yrotation Xrotation Zrotation
                      End Site
                      {
                        OFFSET 0.19008243099999922 -0.012484908149998475 -0.002786250786000012
                      }
                    }
                  }
                }
                JOINT leftMiddleProximal
                {
                  OFFSET 0.5834975091000001 0.0524350405149987 0.02204081888183999
                  CHANNELS 3 Yrotation Xrotation Zrotation
                  JOINT leftMiddleIntermediate
                  {
                    OFFSET 0.33880573540000003 -0.019871473270000717 -0.00000971183179999946
                    CHANNELS 3 Yrotation Xrotation Zrotation
                    JOINT leftMiddleDistal
                    {
                      OFFSET 0.20676022730000088 -0.012221336379999448 0.0001471936708000235
                      CHANNELS 3 Yrotation Xrotation Zrotation
                      End Site
                      {
                        OFFSET 0.20676022730000088 -0.012221336379999448 0.0001471936708000235
                      }
                    }
                  }
                }
                JOINT leftLittleProximal
                {
                  OFFSET 0.5344154683999995 -0.012880921405001189 -0.24414037221816004
                  CHANNELS 3 Yrotation Xrotation Zrotation
                  JOINT leftLittleIntermediate
                  {
                    OFFSET 0.21758961730000093 -0.011650919939999227 0.011893592810000034
                    CHANNELS 3 Yrotation Xrotation Zrotation
                    JOINT leftLittleDistal
                    {
                      OFFSET 0.1475273964999999 -0.008152365682999818 0.006001092492999946
                      CHANNELS 3 Yrotation Xrotation Zrotation
                      End Site
                      {
                        OFFSET 0.1475273964999999 -0.008152365682999818 0.006001092492999946
                      }
                    }
                  }
                }
                JOINT leftRingProximal
                {
                  OFFSET 0.5799399463000003 0.026911854694997794 -0.12150566991816003
                  CHANNELS 3 Yrotation Xrotation Zrotation
                  JOINT leftRingIntermediate
                  {
                    OFFSET 0.26167887460000006 -0.013480186499999602 0.010996293000000053
                    CHANNELS 3 Yrotation Xrotation Zrotation
                    JOINT leftRingDistal
                    {
                      OFFSET 0.17667108799999987 -0.008990287899999228 0.0055541023999999065
                      CHANNELS 3 Yrotation Xrotation Zrotation
                      End Site
                      {
                        OFFSET 0.17667108799999987 -0.008990287899999228 0.0055541023999999065
                      }
                    }
                  }
                }
                JOINT leftThumbProximal
                {
                  OFFSET 0.11018806699999972 -0.09448718900500053 0.17047963138184
                  CHANNELS 3 Yrotation Xrotation Zrotation
                  JOINT leftThumbIntermediate
                  {
                    OFFSET 0.31062601459999983 -0.08126270900000132 0.15443142000000007
                    CHANNELS 3 Yrotation Xrotation Zrotation
                    JOINT leftThumbDistal
                    {
                      OFFSET 0.21627175790000086 -0.08833193599999878 0.018771167799999988
                      CHANNELS 3 Yrotation Xrotation Zrotation
                      End Site
                      {
                        OFFSET 0.21627175790000086 -0.08833193599999878 0.018771167799999988
                      }
                    }
                  }
                }
              }
            }
          }
        }
        JOINT neck
        {
          OFFSET 0 1.5463305265074576 0
          CHANNELS 3 Yrotation Xrotation Zrotation
          JOINT head
          {
            OFFSET 0 0.8456443600000344 0
            CHANNELS 3 Yrotation Xrotation Zrotation
            JOINT leftEye
            {
              OFFSET 0.30408573140000006 0.5104519199999995 0.1276382305
              CHANNELS 3 Yrotation Xrotation Zrotation
              End Site
              {
                OFFSET 0.30408573140000006 0.5104519199999995 0.1276382305
              }
            }
            JOINT rightEye
            {
              OFFSET -0.30409491089999996 0.5104519199999995 0.1276379445
              CHANNELS 3 Yrotation Xrotation Zrotation
              End Site
              {
                OFFSET -0.30409491089999996 0.5104519199999995 0.1276379445
              }
            }
            JOINT jaw
            {
              OFFSET -3.155239131000001e-7 -0.11984121820000082 0.60178107
              CHANNELS 3 Yrotation Xrotation Zrotation
              End Site
              {
                OFFSET -3.155239131000001e-7 -0.11984121820000082 0.60178107
              }
            }
          }
        }
        JOINT rightShoulder
        {
          OFFSET -0.1807303465 1.5087829790000005 0
          CHANNELS 3 Yrotation Xrotation Zrotation
          JOINT rightUpperArm
          {
            OFFSET -0.5985063796536958 0 0
            CHANNELS 3 Yrotation Xrotation Zrotation
            JOINT rightLowerArm
            {
              OFFSET -2.2993322059002854 0 0
              CHANNELS 3 Yrotation Xrotation Zrotation
              JOINT rightHand
              {
                OFFSET -2.395045314457259 0 0
                CHANNELS 3 Yrotation Xrotation Zrotation
                JOINT rightIndexProximal
                {
                  OFFSET -0.5764487688300002 0.0441371204405987 0.17361932004999997
                  CHANNELS 3 Yrotation Xrotation Zrotation
                  JOINT rightIndexIntermediate
                  {
                    OFFSET -0.29573011380000047 -0.01934826376999843 -0.007698921482999974
                    CHANNELS 3 Yrotation Xrotation Zrotation
                    JOINT rightIndexDistal
                    {
                      OFFSET -0.19008373999999884 -0.012503266380000655 -0.0026365778999999897
                      CHANNELS 3 Yrotation Xrotation Zrotation
                      End Site
                      {
                        OFFSET -0.19008373999999884 -0.012503266380000655 -0.0026365778999999897
                      }
                    }
                  }
                }
                JOINT rightMiddleProximal
                {
                  OFFSET -0.5834852037300005 0.05211639405060153 0.02307162440000001
                  CHANNELS 3 Yrotation Xrotation Zrotation
                  JOINT rightMiddleIntermediate
                  {
                    OFFSET -0.33880114510000003 -0.019952774050000954 0.0002455003561999819
                    CHANNELS 3 Yrotation Xrotation Zrotation
                    JOINT rightMiddleDistal
                    {
                      OFFSET -0.20675694929999955 -0.012273788999999091 0.00030209124000002766
                      CHANNELS 3 Yrotation Xrotation Zrotation
                      End Site
                      {
                        OFFSET -0.20675694929999955 -0.012273788999999091 0.00030209124000002766
                      }
                    }
                  }
                }
                JOINT rightLittleProximal
                {
                  OFFSET -0.5346811737299992 -0.011214256288399227 -0.24363941305000003
                  CHANNELS 3 Yrotation Xrotation Zrotation
                  JOINT rightLittleIntermediate
                  {
                    OFFSET -0.21757715980000092 -0.011771559690000988 0.01201554387
                    CHANNELS 3 Yrotation Xrotation Zrotation
                    JOINT rightLittleDistal
                    {
                      OFFSET -0.1475201849000004 -0.00822055339600003 0.006082065407000015
                      CHANNELS 3 Yrotation Xrotation Zrotation
                      End Site
                      {
                        OFFSET -0.1475201849000004 -0.00822055339600003 0.006082065407000015
                      }
                    }
                  }
                }
                JOINT rightRingProximal
                {
                  OFFSET -0.5800810755299999 0.027657985680600072 -0.12066365025000003
                  CHANNELS 3 Yrotation Xrotation Zrotation
                  JOINT rightRingIntermediate
                  {
                    OFFSET -0.26166445029999974 -0.013623118409999302 0.011164098990000045
                    CHANNELS 3 Yrotation Xrotation Zrotation
                    JOINT rightRingDistal
                    {
                      OFFSET -0.17666387530000027 -0.009072900100000503 0.005668185599999959
                      CHANNELS 3 Yrotation Xrotation Zrotation
                      End Site
                      {
                        OFFSET -0.17666387530000027 -0.009072900100000503 0.005668185599999959
                      }
                    }
                  }
                }
                JOINT rightThumbProximal
                {
                  OFFSET -0.10997596379000074 -0.09577489355940072 0.16989765924999997
                  CHANNELS 3 Yrotation Xrotation Zrotation
                  JOINT rightThumbIntermediate
                  {
                    OFFSET -0.31036620999999986 -0.08229339117999834 0.15440884469999996
                    CHANNELS 3 Yrotation Xrotation Zrotation
                    JOINT rightThumbDistal
                    {
                      OFFSET -0.21631306399999906 -0.08825326400000111 0.018656797720000014
                      CHANNELS 3 Yrotation Xrotation Zrotation
                      End Site
                      {
                        OFFSET -0.21631306399999906 -0.08825326400000111 0.018656797720000014
                      }
                    }
                  }
                }
              }
            }
          }
        }
      }
    }
  }
}
MOTION
Frames: 9
Frame Time: 0.03333333333333333
0 11.682712981546562 0 0 0 0 0 0 -5.826343164929014 -0.3712483961610101 -3.6333298826370974 5.838118207697276 0 0 0 0 0 0 0 0 5.826343164929014 0.3712483961610101 -3.6333298826370974 -5.838118207697276 0 0 0 0 0 0 0 -4.610651315171937 0 0 3.0831277533083026 0 0 0 0 0 1.5275236235667615 0 0 0 0 0 0 0 0 0 0 0 0 0 0 0 0 0 0 0 0 0 0 0 0 0 0 0 0 0 0 0 0 0 0 0 0 0 0 0 0 0 0 0 0 0 0 0 0 0 0 0 0 0 0 0 0 1.5275236235667615 0 0 0 0 0 0 0 0 0 0 0 0 0 0 1.5275236235667615 0 0 0 0 0 0 0 0 0 0 0 0 0 0 0 0 0 0 0 0 0 0 0 0 0 0 0 0 0 0 0 0 0 0 0 0 0 0 0 0 0 0 0 0 0 0 0 0 0 0 0 0 0 0 0
5.366740723532839 -0.8231072963873759 7.7433639480699155 -179.99999613527856 75.00404836827043 -179.9999952668952 179.54204610115497 -75.92894497959378 -178.26280405025258 0.4326728368979113 -2.136082788266867 0.1377937534952327 5.206801263416081 -2.099905027287526 2.630534828811509 0 0 0 172.95937231559182 -76.75023737294663 -173.94320053080102 -0.3364270249111636 -3.933522839542106 -1.0791458614712406 -7.039162358768382 -1.1178009489097889 -2.305296733692475 0 0 0 -1.0570333318342442 6.70613907885144 -1.578623826054022 -3.6013051111439545 23.123470345653676 -1.4134986674475185 0 0 0 -29.014571984940996 21.554775068179424 -64.58634445111896 -45.86048502165362 41.81409196248344 -45.94174544932343 -29.382636491509576 4.707675893882905 13.818234168622224 -8.879830863517775 -3.341557668235044 43.91376867047807 0 0 0 0 0 0 0 0 0 0 0 0 0 0 0 0 0 0 0 0 0 0 0 0 0 0 0 0 0 0 0 0 0 0 0 0 0 0 0 0 0 0 0 0 0 0 1.809033683467692 0 0 0.10666000219812358 0 0 0 0 0 0 0 0 0 0 28.579680801893154 21.52727895569326 67.56814272937841 44.542531409475075 42.885353570143266 45.38690509708085 19.592754064081223 2.7110279838631848 -13.111471473839108 8.897971624149225 -3.394241757824276 -43.92336859693799 0 0 0 0 0 0 0 0 0 0 0 0 0 0 0 0 0 0 0 0 0 0 0 0 0 0 0 0 0 0 0 0 0 0 0 0 0 0 0 0 0 0 0 0 0
5.366740723532839 -0.8231072963873759 7.729120907016244 -179.99999613527856 75.00404836827043 -179.9999952668952 179.54204610115497 -75.92894497959378 -178.26280405025258 0.4326728368979113 -2.136082788266867 0.1377937534952327 5.206801263416081 -2.099905027287526 2.630534828811509 0 0 0 172.95937231559182 -76.75023737294663 -173.94320053080102 -0.3364270249111636 -3.933522839542106 -1.0791458614712406 -7.039163206268097 -1.1178009489097889 -2.305296733692475 0 0 0 -1.0561621917955892 6.26210835330878 -1.5702759659100984 -3.5591991403065606 21.475997867346646 -1.3021621671966568 0 0 0 -29.467344764112752 22.91541552618335 -64.67405076374082 -46.08280810827953 41.73172665365301 -46.43253911816357 -31.005079292457612 5.112661101439286 14.237270941918323 -7.6310498162041105 -4.021141081925019 43.183946435683154 0 0 0 0 0 0 0 0 0 0 0 0 0 0 0 0 0 0 0 0 0 0 0 0 0 0 0 0 0 0 0 0 0 0 0 0 0 0 0 0 0 0 0 0 0 0 1.8938045198772306 0 0 0.13902000584421684 0 0 0 0 0 0 0 0 0 0 29.036466002857946 23.19433572972636 67.26858228137513 44.86686955153677 42.748954868581954 45.99090416106744 21.569982754432072 3.182192092926609 -13.881674459497118 7.3232818188207265 -3.9298061535158957 -42.94917661197544 0 0 0 0 0 0 0 0 0 0 0 0 0 0 0 0 0 0 0 0 0 0 0 0 0 0 0 0 0 0 0 0 0 0 0 0 0 0 0 0 0 0 0 0 0
5.366740723532839 -0.8231072963873759 7.714878134354846 -179.99999613527856 75.00404836827043 -179.9999952668952 179.5420504414296 -75.92893093294002 -178.26280731183172 0.4326728368979113 -2.136082788266867 0.1377937534952327 5.206802114238103 -2.099905027287526 2.630534828811509 0 0 0 172.95937231559182 -76.75023737294663 -173.94320053080102 -0.3364270249111636 -3.933522839542106 -1.0791458614712406 -7.039163206268097 -1.1178009489097889 -2.305296733692475 0 0 0 -1.055356645644863 5.817969610450854 -1.5619402933253839 -3.520825510266721 19.822876766014762 -1.1929470157910027 0 0 0 -29.928040388293603 24.278140404056714 -64.77464788554015 -46.30391753078446 41.6479220541624 -46.92234731216555 -32.63181351846753 5.530922495532258 14.646442815417064 -6.368760183228201 -4.686606997376454 42.43651764886772 0 0 0 0 0 0 0 0 0 0 0 0 0 0 0 0 0 0 0 0 0 0 0 0 0 0 0 0 0 0 0 0 0 0 0 0 0 0 0 0 0 0 0 0 0 0 1.9785835614042102 0 0 0.1713800004748319 0 0 0 0 0 0 0 0 0 0 29.490612051614086 24.867209422784217 66.97915946092131 45.18860585465266 42.61002506707012 46.59266859383159 23.55380965076845 3.682719288268263 -14.640109936092413 5.731649240335115 -4.4405396587669985 -41.95556060953149 0 0 0 0 0 0 0 0 0 0 0 0 0 0 0 0 0 0 0 0 0 0 0 0 0 0 0 0 0 0 0 0 0 0 0 0 0 0 0 0 0 0 0 0 0
5.366740723532839 -0.8231072963873759 7.700635093301175 -179.99999613527856 75.00404836827043 -179.9999952668952 179.54204610115497 -75.92894497959378 -178.26280405025258 0.4326728368979113 -2.136082788266867 0.1377937534952327 5.206802114238103 -2.099905027287526 2.630534828811509 0 0 0 172.95937231559182 -76.75023737294663 -173.94320053080102 -0.3364270249111636 -3.933522839542106 -1.0791458614712406 -7.039163206268097 -1.1178009489097889 -2.305296733692475 0 0 0 -1.054616684373529 5.373735477462221 -1.5536150681899492 -3.4860505851528627 18.164784295028767 -1.0856637206300455 0 0 0 -30.397323406211193 25.642416570502807 -64.88872024820056 -46.523824673805414 41.56270642004484 -47.41116497368467 -34.26219477598009 5.9620434161860905 15.045140062037785 -5.0932072143270215 -5.337123796274496 41.67175673446074 0 0 0 0 0 0 0 0 0 0 0 0 0 0 0 0 0 0 0 0 0 0 0 0 0 0 0 0 0 0 0 0 0 0 0 0 0 0 0 0 0 0 0 0 0 0 2.0633697134210616 0 0 0.20373999641233947 0 0 0 0 0 0 0 0 0 0 29.94253070676314 26.544986083238058 66.70001347024633 45.507685339443064 42.468580271751996 47.19215195672489 25.542746612072 4.212037150131839 -15.385150263050713 4.124043317308828 -4.9252730364591715 -40.94347642356643 0 0 0 0 0 0 0 0 0 0 0 0 0 0 0 0 0 0 0 0 0 0 0 0 0 0 0 0 0 0 0 0 0 0 0 0 0 0 0 0 0 0 0 0 0
5.366740723532839 -0.8231072963873759 7.686392589032045 -179.99999613527856 75.00404836827043 -179.9999952668952 179.54204584854506 -75.92895902626127 -178.26280484716892 0.4326728368979113 -2.136082788266867 0.1377937534952327 5.206801263416081 -2.099905027287526 2.630534828811509 0 0 0 172.95937642493777 -76.75023737294663 -173.9432040682396 -0.3364270249111636 -3.933522839542106 -1.0791458614712406 -7.039161511268666 -1.1178009489097889 -2.3052956671361855 0 0 0 -1.0539419376593615 4.929427484238053 -1.5453007497198494 -3.4547494916637493 16.50240319255684 -0.9801276503275163 0 0 0 -30.87590575700434 27.00771703393109 -65.0168815915372 -46.742479325805114 41.47608058458444 -47.898957491947414 -35.89559739200769 6.405568972662659 15.43276498759441 -3.8046852274824556 -5.971871948437886 40.889977618013575 0 0 0 0 0 0 0 0 0 0 0 0 0 0 0 0 0 0 0 0 0 0 0 0 0 0 0 0 0 0 0 0 0 0 0 0 0 0 0 0 0 0 0 0 0 0 2.148163589908522 0 0 0.23610099116332495 0 0 0 0 0 0 0 0 0 0 30.392638274752 28.22674602194679 66.43131229250578 45.82409388699495 42.324664370511606 47.78933401951759 27.535316432268594 4.769442385979791 -16.115202566252332 2.501515480792482 -5.382897959749389 -39.913943816781476 0 0 0 0 0 0 0 0 0 0 0 0 0 0 0 0 0 0 0 0 0 0 0 0 0 0 0 0 0 0 0 0 0 0 0 0 0 0 0 0 0 0 0 0 0
5.366740723532839 -0.8231072963873759 7.672149547978376 -179.99999613527856 75.00404836827043 -179.9999952668952 179.54205018882223 -75.92894497959378 -178.26280799906033 0.4326726767086065 -2.13608385622603 0.1377947413546215 5.206801263416081 -2.099905027287526 2.630534828811509 0 0 0 172.95937231559182 -76.75023737294663 -173.94320053080102 -0.3364270249111636 -3.933522839542106 -1.0791458614712406 -7.039162358768382 -1.1178009489097889 -2.305296733692475 0 0 0 -1.0533322545293982 4.485047354798935 -1.536995177025553 -3.4268153579966745 14.836430950151017 -0.8761672136769266 0 0 0 -31.364533280628162 28.373496288199753 -65.15979023195624 -46.95989956747495 41.38805000143665 -48.38572638867795 -37.531362895917454 6.8610067064350995 15.80874523140724 -2.5035425660865434 -6.590051223301284 40.09156949321385 0 0 0 0 0 0 0 0 0 0 0 0 0 0 0 0 0 0 0 0 0 0 0 0 0 0 0 0 0 0 0 0 0 0 0 0 0 0 0 0 0 0 0 0 0 0 2.2329655914643998 0 0 0.2684619945306888 0 0 0 0 0 0 0 0 0 0 30.841356535213343 29.911566956701993 66.17322943267848 46.13780249005588 42.17830722556287 48.38416601326862 29.530089202830833 5.354100213109624 -16.828724645805256 0.8652182099295543 -5.812370350038634 -38.86811366672301 0 0 0 0 0 0 0 0 0 0 0 0 0 0 0 0 0 0 0 0 0 0 0 0 0 0 0 0 0 0 0 0 0 0 0 0 0 0 0 0 0 0 0 0 0
5.366740723532839 -0.8231072963873759 7.657906775316976 -179.99999613527856 75.00404836827043 -179.9999952668952 179.54204610115497 -75.92894497959378 -178.26280405025258 0.4326728368979113 -2.136082788266867 0.1377937534952327 5.206801263416081 -2.099905027287526 2.630534828811509 0 0 0 172.95937231559182 -76.75023737294663 -173.94320053080102 -0.3364270249111636 -3.933522839542106 -1.0791458614712406 -7.039162358768382 -1.1178009489097889 -2.305296733692475 0 0 0 -1.0527864569488743 4.040616022504482 -1.5286987180683589 -3.402146796698882 13.16756446354722 -0.7736183446873247 0 0 0 -31.86400030386534 29.73920118604454 -65.31814839401525 -47.176010611206536 41.2986338033373 -48.87140763438101 -39.168911259325 7.327830189443886 16.17252949514937 -1.190168021808897 -7.190879086169008 39.276947148909365 0 0 0 0 0 0 0 0 0 0 0 0 0 0 0 0 0 0 0 0 0 0 0 0 0 0 0 0 0 0 0 0 0 0 0 0 0 0 0 0 0 0 0 0 0 0 2.317774623544871 0 0 0.3008239906868756 0 0 0 0 0 0 0 0 0 0 31.28918487115696 31.59851755631337 65.9260032765231 46.4487475190424 42.02952022165292 48.97659937544845 31.525664011342414 5.965056467740214 -17.5242344395683 -0.7836038363746899 -6.212719299487803 -37.80722401986556 0 0 0 0 0 0 0 0 0 0 0 0 0 0 0 0 0 0 0 0 0 0 0 0 0 0 0 0 0 0 0 0 0 0 0 0 0 0 0 0 0 0 0 0 0
5.366740723532839 -0.8231072963873759 7.643663734263305 -179.99999613527856 75.00404836827043 -179.9999952668952 179.54205018882223 -75.92894497959378 -178.2628070118584 0.4326728368979113 -2.136082788266867 0.1377937534952327 5.206801263416081 -2.099905027287526 2.630534828811509 0 0 0 172.95937231559182 -76.75023737294663 -173.94320053080102 -0.3364270249111636 -3.933522839542106 -1.0791458614712406 -7.039162358768382 -1.1178009489097889 -2.305296733692475 0 0 0 -1.0523065998993202 3.5961427864471176 -1.5204096637976041 -3.3806579948911715 11.496523156009005 -0.6723255248912138 0 0 0 -32.375125228551624 31.104290648021934 -65.49268875537152 -47.390840794197885 41.20783746889123 -49.35600886459761 -40.80761051300778 7.805480836755187 16.52360699258016 0.13499453219683344 -7.773591836522284 38.446575145284605 0 0 0 0 0 0 0 0 0 0 0 0 0 0 0 0 0 0 0 0 0 0 0 0 0 0 0 0 0 0 0 0 0 0 0 0 0 0 0 0 0 0 0 0 0 0 2.402590659591235 0 0 0.3331860027721199 0 0 0 0 0 0 0 0 0 0 31.736697325332198 33.28664636906966 65.68999337394341 46.756915797785304 41.87835151163225 49.56661166412691 33.52070120611552 6.6012306751449525 -18.200294946747736 -2.4436206599630093 -6.583056190357676 -36.732569285506266 0 0 0 0 0 0 0 0 0 0 0 0 0 0 0 0 0 0 0 0 0 0 0 0 0 0 0 0 0 0 0 0 0 0 0 0 0 0 0 0 0 0 0 0 0
